<svg xmlns="http://www.w3.org/2000/svg" xmlns:xlink="http://www.w3.org/1999/xlink" viewBox="0,0,256,256" width="144px" height="144px" fill-rule="nonzero"><defs><linearGradient x1="24" y1="6" x2="24" y2="42" gradientUnits="userSpaceOnUse" id="color-1"><stop offset="0" stop-color="#55d0f8"></stop><stop offset="1" stop-color="#144cd4"></stop></linearGradient><radialGradient cx="24" cy="24" r="18" gradientUnits="userSpaceOnUse" id="color-2"><stop offset="0.756" stop-color="#2520d4"></stop><stop offset="0.787" stop-color="#5234de" stop-opacity="0.76078"></stop><stop offset="0.857" stop-color="#f86868" stop-opacity="0.15686"></stop><stop offset="0.875" stop-color="#ff7575" stop-opacity="0"></stop></radialGradient></defs><g fill="none" fill-rule="nonzero" stroke="none" stroke-width="1" stroke-linecap="butt" stroke-linejoin="miter" stroke-miterlimit="10" stroke-dasharray="" stroke-dashoffset="0" font-family="none" font-weight="none" font-size="none" text-anchor="none" style="mix-blend-mode: normal"><g transform="scale(5.33333,5.33333)"><g><path d="M24,6c-9.96118,0.05503 -18.00566,8.14867 -18,18.11c0.06066,9.92658 8.1462,17.93023 18.07289,17.88985c9.92668,-0.04038 17.94684,-8.10955 17.92674,-18.03629c-0.0201,-9.92675 -8.07286,-17.96337 -17.99963,-17.96356zM24,37c-7.1797,0 -13,-5.8203 -13,-13c0,-7.1797 5.8203,-13 13,-13c7.1797,0 13,5.8203 13,13c0,7.1797 -5.8203,13 -13,13z" fill="url(#color-1)"></path><path d="M24,6c-9.96118,0.05503 -18.00566,8.14867 -18,18.11c0.06066,9.92658 8.1462,17.93023 18.07289,17.88985c9.92668,-0.04038 17.94684,-8.10955 17.92674,-18.03629c-0.0201,-9.92675 -8.07286,-17.96337 -17.99963,-17.96356zM24,37c-7.1797,0 -13,-5.8203 -13,-13c0,-7.1797 5.8203,-13 13,-13c7.1797,0 13,5.8203 13,13c0,7.1797 -5.8203,13 -13,13z" fill="url(#color-2)" opacity="0.8"></path></g></g></g></svg>