<?xml version="1.0" encoding="UTF-8"?><svg id="Layer_1" xmlns="http://www.w3.org/2000/svg" viewBox="0 0 257.38 36.39"><defs><style>.cls-1{fill:#fff;}.cls-2{fill:#432c92;}.cls-3{fill:none;stroke:#5659ce;stroke-linecap:round;stroke-linejoin:round;stroke-width:4.32px;}</style></defs><path class="cls-2" d="m12.44,32.48c-1,0-1.44-.44-1.44-1.44V11.43s-5.86,0-5.86,0c-1,0-1.44-.44-1.44-1.44v-4.83c0-1,.44-1.44,1.44-1.44h21.09c1,.01,1.44.45,1.44,1.45v4.83c0,1-.44,1.44-1.44,1.44h-5.87s0,19.61,0,19.61c0,1-.44,1.44-1.44,1.44h-6.47Z"/><path class="cls-2" d="m30.9,31.05v-4.75c0-1,.44-1.44,1.44-1.44h3.95s0-13.42,0-13.42h-3.95c-1,0-1.44-.44-1.44-1.44v-4.83c0-1,.44-1.44,1.44-1.44h17.02c1,0,1.44.45,1.44,1.45v4.83c0,1-.44,1.44-1.44,1.44h-3.87s0,13.42,0,13.42h3.87c1,0,1.44.44,1.44,1.44v4.75c0,1-.44,1.44-1.44,1.44h-17.02c-1,0-1.44-.45-1.44-1.45Z"/><path class="cls-2" d="m65.09,32.5c-6.71,0-9.82-2.6-9.82-8.15v-12.42c0-5.59,3.12-8.19,9.84-8.18h9.75c1,0,1.44.44,1.44,1.44v4.83c0,1-.44,1.44-1.44,1.44h-8.03c-1.68,0-2.44.63-2.44,1.99v9.51c0,1.32.75,1.92,2.43,1.92h8.03c1,0,1.44.44,1.44,1.44v4.75c0,1-.44,1.44-1.44,1.44h-9.75Z"/><path class="cls-2" d="m96.48,32.52c-1,0-1.44-.44-1.44-1.44V11.47s-5.86,0-5.86,0c-1,0-1.44-.44-1.44-1.44v-4.83c0-1,.44-1.44,1.44-1.44h21.09c1,.01,1.44.45,1.44,1.45v4.83c0,1-.44,1.44-1.44,1.44h-5.87s0,19.61,0,19.61c0,1-.44,1.44-1.44,1.44h-6.47Z"/><path class="cls-2" d="m120.69,32.53h-5.87c-1,0-1.44-.44-1.44-1.44v-10.54c0-1.6.49-3.59,1.57-6.39l3.48-9.07c.32-.92.96-1.32,2.04-1.32h10.74c1.04,0,1.68.41,2,1.32l3.47,9.07c1.08,2.8,1.56,4.79,1.55,6.39v10.54c0,1-.44,1.44-1.44,1.44h-6.03c-1.08,0-1.56-.44-1.56-1.44v-5.59s-7.07,0-7.07,0v5.59c0,1-.44,1.44-1.44,1.44Zm1.84-14.3h6.27s-1.87-6.07-1.87-6.07c-.2-.48-.44-.68-.76-.68h-1c-.32,0-.56.2-.76.68l-1.88,6.07Z"/><path class="cls-2" d="m152.52,32.54c-6.71,0-9.82-2.6-9.82-8.15v-12.42c0-5.59,3.12-8.19,9.84-8.18h9.75c1,0,1.44.44,1.44,1.44v4.83c0,1-.44,1.44-1.44,1.44h-8.03c-1.68,0-2.44.63-2.44,1.99v9.51c0,1.32.75,1.92,2.43,1.92h8.03c1,0,1.44.44,1.44,1.44v4.75c0,1-.44,1.44-1.44,1.44h-9.75Z"/><path class="cls-2" d="m183.92,32.56c-1,0-1.44-.44-1.44-1.44V11.51s-5.86,0-5.86,0c-1,0-1.44-.44-1.44-1.44v-4.83c0-1,.44-1.44,1.44-1.44h21.09c1,.01,1.44.45,1.44,1.45v4.83c0,1-.44,1.44-1.44,1.44h-5.87s0,19.61,0,19.61c0,1-.44,1.44-1.44,1.44h-6.47Z"/><path class="cls-2" d="m214.79,33.17c-9.99,0-12.42-3.28-12.42-8.15v-13.62c0-4.87,2.45-8.19,12.43-8.18,9.99,0,12.38,3.32,12.38,8.19v13.62c0,4.87-2.41,8.15-12.39,8.14Zm0-7.71c2.92,0,3.36-.8,3.36-1.88v-10.74c0-1.04-.43-1.84-3.35-1.84-2.88,0-3.36.8-3.36,1.84v10.74c0,1.08.47,1.88,3.35,1.88Z"/><path class="cls-2" d="m233.69,32.58c-1,0-1.44-.44-1.44-1.44V5.26c.01-1,.45-1.44,1.45-1.44h18.53c1,0,1.44.45,1.44,1.45v4.67c0,1-.44,1.44-1.44,1.44h-11.02s0,3.07,0,3.07h7.79c1,0,1.44.44,1.44,1.44v4.27c0,1-.44,1.44-1.44,1.44h-7.79s0,3.43,0,3.43h11.02c1,0,1.44.45,1.44,1.44v4.67c0,1-.44,1.44-1.44,1.44h-18.53Z"/><path class="cls-3" d="m12.44,32.48c-1,0-1.44-.44-1.44-1.44V11.43s-5.86,0-5.86,0c-1,0-1.44-.44-1.44-1.44v-4.83c0-1,.44-1.44,1.44-1.44h21.09c1,.01,1.44.45,1.44,1.45v4.83c0,1-.44,1.44-1.44,1.44h-5.87s0,19.61,0,19.61c0,1-.44,1.44-1.44,1.44h-6.47Z"/><path class="cls-3" d="m30.9,31.05v-4.75c0-1,.44-1.44,1.44-1.44h3.95s0-13.42,0-13.42h-3.95c-1,0-1.44-.44-1.44-1.44v-4.83c0-1,.44-1.44,1.44-1.44h17.02c1,0,1.44.45,1.44,1.45v4.83c0,1-.44,1.44-1.44,1.44h-3.87s0,13.42,0,13.42h3.87c1,0,1.44.44,1.44,1.44v4.75c0,1-.44,1.44-1.44,1.44h-17.02c-1,0-1.44-.45-1.44-1.45Z"/><path class="cls-3" d="m65.09,32.5c-6.71,0-9.82-2.6-9.82-8.15v-12.42c0-5.59,3.12-8.19,9.84-8.18h9.75c1,0,1.44.44,1.44,1.44v4.83c0,1-.44,1.44-1.44,1.44h-8.03c-1.68,0-2.44.63-2.44,1.99v9.51c0,1.32.75,1.92,2.43,1.92h8.03c1,0,1.44.44,1.44,1.44v4.75c0,1-.44,1.44-1.44,1.44h-9.75Z"/><path class="cls-3" d="m96.48,32.52c-1,0-1.44-.44-1.44-1.44V11.47s-5.86,0-5.86,0c-1,0-1.44-.44-1.44-1.44v-4.83c0-1,.44-1.44,1.44-1.44h21.09c1,.01,1.44.45,1.44,1.45v4.83c0,1-.44,1.44-1.44,1.44h-5.87s0,19.61,0,19.61c0,1-.44,1.44-1.44,1.44h-6.47Z"/><path class="cls-3" d="m120.69,32.53h-5.87c-1,0-1.44-.44-1.44-1.44v-10.54c0-1.6.49-3.59,1.57-6.39l3.48-9.07c.32-.92.96-1.32,2.04-1.32h10.74c1.04,0,1.68.41,2,1.32l3.47,9.07c1.08,2.8,1.56,4.79,1.55,6.39v10.54c0,1-.44,1.44-1.44,1.44h-6.03c-1.08,0-1.56-.44-1.56-1.44v-5.59s-7.07,0-7.07,0v5.59c0,1-.44,1.44-1.44,1.44Zm1.84-14.3h6.27s-1.87-6.07-1.87-6.07c-.2-.48-.44-.68-.76-.68h-1c-.32,0-.56.2-.76.68l-1.88,6.07Z"/><path class="cls-3" d="m152.52,32.54c-6.71,0-9.82-2.6-9.82-8.15v-12.42c0-5.59,3.12-8.19,9.84-8.18h9.75c1,0,1.44.44,1.44,1.44v4.83c0,1-.44,1.44-1.44,1.44h-8.03c-1.68,0-2.44.63-2.44,1.99v9.51c0,1.32.75,1.92,2.43,1.92h8.03c1,0,1.44.44,1.44,1.44v4.75c0,1-.44,1.44-1.44,1.44h-9.75Z"/><path class="cls-3" d="m183.92,32.56c-1,0-1.44-.44-1.44-1.44V11.51s-5.86,0-5.86,0c-1,0-1.44-.44-1.44-1.44v-4.83c0-1,.44-1.44,1.44-1.44h21.09c1,.01,1.44.45,1.44,1.45v4.83c0,1-.44,1.44-1.44,1.44h-5.87s0,19.61,0,19.61c0,1-.44,1.44-1.44,1.44h-6.47Z"/><path class="cls-3" d="m214.79,33.17c-9.99,0-12.42-3.28-12.42-8.15v-13.62c0-4.87,2.45-8.19,12.43-8.18,9.99,0,12.38,3.32,12.38,8.19v13.62c0,4.87-2.41,8.15-12.39,8.14Zm0-7.71c2.92,0,3.36-.8,3.36-1.88v-10.74c0-1.04-.43-1.84-3.35-1.84-2.88,0-3.36.8-3.36,1.84v10.74c0,1.08.47,1.88,3.35,1.88Z"/><path class="cls-3" d="m233.69,32.58c-1,0-1.44-.44-1.44-1.44V5.26c.01-1,.45-1.44,1.45-1.44h18.53c1,0,1.44.45,1.44,1.45v4.67c0,1-.44,1.44-1.44,1.44h-11.02s0,3.07,0,3.07h7.79c1,0,1.44.44,1.44,1.44v4.27c0,1-.44,1.44-1.44,1.44h-7.79s0,3.43,0,3.43h11.02c1,0,1.44.45,1.44,1.44v4.67c0,1-.44,1.44-1.44,1.44h-18.53Z"/><path class="cls-1" d="m12.44,32.48c-1,0-1.44-.44-1.44-1.44V11.43s-5.86,0-5.86,0c-1,0-1.44-.44-1.44-1.44v-4.83c0-1,.44-1.44,1.44-1.44h21.09c1,.01,1.44.45,1.44,1.45v4.83c0,1-.44,1.44-1.44,1.44h-5.87s0,19.61,0,19.61c0,1-.44,1.44-1.44,1.44h-6.47Z"/><path class="cls-1" d="m30.9,31.05v-4.75c0-1,.44-1.44,1.44-1.44h3.95s0-13.42,0-13.42h-3.95c-1,0-1.44-.44-1.44-1.44v-4.83c0-1,.44-1.44,1.44-1.44h17.02c1,0,1.44.45,1.44,1.45v4.83c0,1-.44,1.44-1.44,1.44h-3.87s0,13.42,0,13.42h3.87c1,0,1.44.44,1.44,1.44v4.75c0,1-.44,1.44-1.44,1.44h-17.02c-1,0-1.44-.45-1.44-1.45Z"/><path class="cls-1" d="m65.09,32.5c-6.71,0-9.82-2.6-9.82-8.15v-12.42c0-5.59,3.12-8.19,9.84-8.18h9.75c1,0,1.44.44,1.44,1.44v4.83c0,1-.44,1.44-1.44,1.44h-8.03c-1.68,0-2.44.63-2.44,1.99v9.51c0,1.32.75,1.92,2.43,1.92h8.03c1,0,1.44.44,1.44,1.44v4.75c0,1-.44,1.44-1.44,1.44h-9.75Z"/><path class="cls-1" d="m96.48,32.52c-1,0-1.44-.44-1.44-1.44V11.47s-5.86,0-5.86,0c-1,0-1.44-.44-1.44-1.44v-4.83c0-1,.44-1.44,1.44-1.44h21.09c1,.01,1.44.45,1.44,1.45v4.83c0,1-.44,1.44-1.44,1.44h-5.87s0,19.61,0,19.61c0,1-.44,1.44-1.44,1.44h-6.47Z"/><path class="cls-1" d="m120.69,32.53h-5.87c-1,0-1.44-.44-1.44-1.44v-10.54c0-1.6.49-3.59,1.57-6.39l3.48-9.07c.32-.92.96-1.32,2.04-1.32h10.74c1.04,0,1.68.41,2,1.32l3.47,9.07c1.08,2.8,1.56,4.79,1.55,6.39v10.54c0,1-.44,1.44-1.44,1.44h-6.03c-1.08,0-1.56-.44-1.56-1.44v-5.59s-7.07,0-7.07,0v5.59c0,1-.44,1.44-1.44,1.44Zm1.84-14.3h6.27s-1.87-6.07-1.87-6.07c-.2-.48-.44-.68-.76-.68h-1c-.32,0-.56.2-.76.68l-1.88,6.07Z"/><path class="cls-1" d="m152.52,32.54c-6.71,0-9.82-2.6-9.82-8.15v-12.42c0-5.59,3.12-8.19,9.84-8.18h9.75c1,0,1.44.44,1.44,1.44v4.83c0,1-.44,1.44-1.44,1.44h-8.03c-1.68,0-2.44.63-2.44,1.99v9.51c0,1.32.75,1.92,2.43,1.92h8.03c1,0,1.44.44,1.44,1.44v4.75c0,1-.44,1.44-1.44,1.44h-9.75Z"/><path class="cls-1" d="m183.92,32.56c-1,0-1.44-.44-1.44-1.44V11.51s-5.86,0-5.86,0c-1,0-1.44-.44-1.44-1.44v-4.83c0-1,.44-1.44,1.44-1.44h21.09c1,.01,1.44.45,1.44,1.45v4.83c0,1-.44,1.44-1.44,1.44h-5.87s0,19.61,0,19.61c0,1-.44,1.44-1.44,1.44h-6.47Z"/><path class="cls-1" d="m214.79,33.17c-9.99,0-12.42-3.28-12.42-8.15v-13.62c0-4.87,2.45-8.19,12.43-8.18,9.99,0,12.38,3.32,12.38,8.19v13.62c0,4.87-2.41,8.15-12.39,8.14Zm0-7.71c2.92,0,3.36-.8,3.36-1.88v-10.74c0-1.04-.43-1.84-3.35-1.84-2.88,0-3.36.8-3.36,1.84v10.74c0,1.08.47,1.88,3.35,1.88Z"/><path class="cls-1" d="m233.69,32.58c-1,0-1.44-.44-1.44-1.44V5.26c.01-1,.45-1.44,1.45-1.44h18.53c1,0,1.44.45,1.44,1.45v4.67c0,1-.44,1.44-1.44,1.44h-11.02s0,3.07,0,3.07h7.79c1,0,1.44.44,1.44,1.44v4.27c0,1-.44,1.44-1.44,1.44h-7.79s0,3.43,0,3.43h11.02c1,0,1.44.45,1.44,1.44v4.67c0,1-.44,1.44-1.44,1.44h-18.53Z"/></svg>